<svg width="46" height="24" viewBox="0 0 46 24" fill="none" xmlns="http://www.w3.org/2000/svg">
<path d="M20.44 0.535999V23H14.968V13.752H6.456V23H0.984V0.535999H6.456V9.336H14.968V0.535999H20.44ZM29.8623 18.776H37.0303V23H24.3903V0.535999H29.8623V18.776Z" fill="white"/>
<path d="M42.2003 23.256C41.2403 23.256 40.4509 22.9787 39.8323 22.424C39.2349 21.848 38.9363 21.144 38.9363 20.312C38.9363 19.4587 39.2349 18.744 39.8323 18.168C40.4509 17.592 41.2403 17.304 42.2003 17.304C43.1389 17.304 43.9069 17.592 44.5043 18.168C45.1229 18.744 45.4323 19.4587 45.4323 20.312C45.4323 21.144 45.1229 21.848 44.5043 22.424C43.9069 22.9787 43.1389 23.256 42.2003 23.256Z" fill="#007BFF"/>
</svg>
